<?xml version="1.0" standalone="no"?>
<!DOCTYPE svg PUBLIC "-//W3C//DTD SVG 20010904//EN"
 "http://www.w3.org/TR/2001/REC-SVG-20010904/DTD/svg10.dtd">
<svg version="1.0" xmlns="http://www.w3.org/2000/svg"
 width="252.000000pt" height="341.000000pt" viewBox="0 0 252.000000 341.000000"
 preserveAspectRatio="xMidYMid meet">

<g transform="translate(0.000000,341.000000) scale(0.100000,-0.100000)"
fill="#000000" stroke="none">
<path d="M1100 2891 c0 -5 5 -13 10 -16 6 -3 10 -2 10 4 0 5 -4 13 -10 16 -5
3 -10 2 -10 -4z"/>
<path d="M1110 2845 c0 -16 16 -20 24 -6 3 5 -1 11 -9 15 -9 3 -15 0 -15 -9z"/>
<path d="M1421 2793 c-1 -24 4 -43 9 -43 12 0 12 37 0 65 -7 15 -9 10 -9 -22z"/>
<path d="M1120 2673 c1 -43 9 -137 18 -209 17 -129 17 -131 40 -123 26 10 29
41 8 109 -13 45 -31 174 -27 198 1 6 -3 12 -9 12 -5 0 -10 20 -10 45 0 25 -4
45 -10 45 -6 0 -10 -32 -10 -77z"/>
<path d="M1411 2663 c-6 -37 -13 -115 -16 -172 -3 -57 -8 -115 -11 -128 -5
-17 -2 -23 10 -23 18 0 19 3 17 78 -1 29 4 71 10 95 10 37 13 206 4 215 -2 2
-8 -27 -14 -65z"/>
<path d="M920 2510 c0 -5 10 -10 23 -10 18 0 19 2 7 10 -19 13 -30 13 -30 0z"/>
<path d="M941 2452 c-1 -13 4 -33 11 -45 6 -12 13 -38 15 -57 7 -80 14 -102
27 -91 7 6 15 9 17 6 14 -13 -1 48 -24 95 -14 30 -30 69 -36 85 -8 26 -10 27
-10 7z"/>
<path d="M730 2270 c-9 -6 -10 -10 -3 -10 6 0 15 5 18 10 8 12 4 12 -15 0z"/>
<path d="M950 1452 c8 -4 17 -16 18 -27 2 -11 8 -23 13 -26 6 -3 3 -11 -6 -19
-19 -16 -20 -49 0 -56 8 -3 22 1 30 10 9 9 22 16 28 16 7 0 4 5 -5 11 -13 7
-18 23 -18 54 l0 45 -37 -1 c-22 0 -32 -3 -23 -7z"/>
</g>
</svg>
